<svg width="161" height="48" viewBox="0 0 161 48" fill="none" xmlns="http://www.w3.org/2000/svg">
<path d="M3.10742 10.1349V37.1613H8.64994V19.5044H8.87428L15.8684 37.0293H19.6426L26.6367 19.5704H26.8611V37.1613H32.4036V10.1349H25.3567L17.9139 28.2932H17.5972L10.1543 10.1349H3.10742Z" fill="#DF2935"/>
<path d="M81.7057 16.8915H75.7541L71.5576 31.3944H71.3464L67.1367 16.8915H61.1983L68.2848 37.1613H74.6192L81.7057 16.8915Z" fill="#DF2935"/>
<path d="M84.5825 44.7625H90.2042V33.9149H90.3757C91.1543 35.6041 92.8567 37.4912 96.1294 37.4912C100.748 37.4912 104.351 33.8358 104.351 27.0528C104.351 20.085 100.59 16.6276 96.1426 16.6276C92.7511 16.6276 91.128 18.6466 90.3757 20.2962H90.125V16.8915H84.5825V44.7625ZM90.0854 27.0264C90.0854 23.4105 91.6162 21.1012 94.3479 21.1012C97.1323 21.1012 98.6104 23.5161 98.6104 27.0264C98.6104 30.563 97.1059 33.0176 94.3479 33.0176C91.6426 33.0176 90.0854 30.6422 90.0854 27.0264Z" fill="#DF2935"/>
<path d="M113.72 10.1349H108.099V37.1613H113.72V10.1349Z" fill="#DF2935"/>
<path d="M131.222 28.5308C131.235 31.2493 129.375 32.6745 127.356 32.6745C125.231 32.6745 123.859 31.1833 123.845 28.7947V16.8915H118.224V29.7976C118.237 34.5352 121.008 37.4252 125.086 37.4252C128.134 37.4252 130.325 35.8548 131.235 33.4795H131.447V37.1613H136.844V16.8915H131.222V28.5308Z" fill="#DF2935"/>
<path d="M158.206 22.6715C157.704 18.9369 154.695 16.6276 149.575 16.6276C144.389 16.6276 140.971 19.0293 140.984 22.9355C140.971 25.9707 142.885 27.9369 146.843 28.7287L150.354 29.4281C152.122 29.7844 152.927 30.4311 152.953 31.4472C152.927 32.6481 151.621 33.5059 149.654 33.5059C147.648 33.5059 146.316 32.6481 145.973 30.9985L140.443 31.2888C140.971 35.1686 144.27 37.5572 149.641 37.5572C154.893 37.5572 158.654 34.8783 158.668 30.8798C158.654 27.9501 156.741 26.195 152.808 25.39L149.14 24.651C147.253 24.2419 146.553 23.5953 146.566 22.6188C146.553 21.4047 147.926 20.6129 149.668 20.6129C151.621 20.6129 152.782 21.6818 153.059 22.9883L158.206 22.6715Z" fill="#DF2935"/>
<path d="M47.984 13.9355C41.5834 13.9355 36.3711 19.1453 36.3711 25.5551C36.3711 31.9515 41.5834 37.1613 47.984 37.1613C54.3845 37.1613 59.5969 31.9515 59.5969 25.5551C59.5969 19.1453 54.3845 13.9355 47.984 13.9355Z" fill="#DF2935"/>
<path d="M52.5574 26.3719C52.5238 26.4167 52.3669 26.6072 52.2436 26.7304L52.1763 26.7976C51.2347 27.8172 48.892 29.3521 47.7038 29.8451C47.7038 29.8563 46.9976 30.1476 46.6613 30.1588H46.6165C46.1008 30.1588 45.6188 29.8675 45.3722 29.3969C45.2377 29.1393 45.1144 28.3886 45.1032 28.3774C45.0023 27.7051 44.9351 26.6755 44.9351 25.5428C44.9351 24.3552 45.0023 23.2796 45.1256 22.6186C45.1256 22.6073 45.2489 22.0023 45.3274 21.8007C45.4507 21.5094 45.6749 21.2629 45.9551 21.106C46.1793 20.994 46.4147 20.938 46.6613 20.938C46.9191 20.9492 47.4011 21.1183 47.5917 21.1956C48.8471 21.6886 51.2459 23.302 52.1651 24.2879C52.322 24.4448 52.4902 24.6353 52.535 24.6801C52.7256 24.9266 52.8265 25.2291 52.8265 25.5551C52.8265 25.8453 52.7368 26.1366 52.5574 26.3719Z" fill="white"/>
</svg>
